<?xml version="1.0" encoding="UTF-8" standalone="no"?>
<svg width="24px" height="16px" viewBox="0 0 24 16" version="1.1" xmlns="http://www.w3.org/2000/svg" xmlns:xlink="http://www.w3.org/1999/xlink">
    <!-- Generator: Sketch 39.1 (31720) - http://www.bohemiancoding.com/sketch -->
    <title>Group 4</title>
    <desc>Created with Sketch.</desc>
    <defs></defs>
    <g id="Welcome" stroke="none" stroke-width="1" fill="none" fill-rule="evenodd">
        <g id="Video-Player" transform="translate(-234.000000, -284.000000)">
            <g id="Group-4" transform="translate(234.000000, 284.000000)">
                <path d="M23.1008045,7.93582759 C23.0654794,4.20650501 22.9239442,2.58037624 22.040347,1.43142989 C21.8813253,1.1841541 21.5807684,1.04273629 21.3333753,0.866110731 C20.4672645,0.229671911 16.3844561,-1.0949148e-15 11.647605,-1.0949148e-15 C6.91075386,-1.0949148e-15 2.63356342,0.229671911 1.78517392,0.866110731 C1.52000086,1.04273629 1.21943227,1.1841541 1.04279497,1.43142989 C0.176637298,2.58037624 0.0530111406,4.20650501 -5.474574e-16,7.93582759 C0.0530111406,11.6653849 0.176637298,13.2913963 1.04279497,14.4402253 C1.21943227,14.7053397 1.52000086,14.8290363 1.78517392,15.0057792 C2.63356342,15.6598219 6.91075386,15.8718899 11.647605,15.907215 C16.3844561,15.8718899 20.4672645,15.6598219 21.3333753,15.0057792 C21.5807684,14.8290363 21.8813253,14.7053397 22.040347,14.4402253 C22.9239442,13.2913963 23.0654794,11.6653849 23.1008045,7.93582759 L23.1008045,7.93582759 Z" id="path18" fill="#262625"></path>
                <path d="M6.5767754,1.94801642 C4.0403267,1.94801642 2.04651163,4.23522943 2.04651163,7.91061374 C2.04651163,11.6017477 3.86367766,13.9046868 6.86699291,13.9046868 C9.26461744,13.9046868 10.942971,12.1380791 11.2079681,9.20398229 L8.34341831,9.20398229 C8.22984983,10.2924887 7.77557592,11.1285554 6.81651672,11.1285554 C5.30223126,11.1285554 5.02462986,9.62999611 5.02462986,8.03679833 C5.02462986,5.8441064 5.655588,4.72426512 6.70294825,4.72426512 C7.63678696,4.72426512 8.22984983,5.40248381 8.31818608,6.58558168 L11.1448288,6.58558168 C10.905064,3.66732837 9.3529889,1.94801642 6.5767754,1.94801642 Z" id="path20" fill="#FFFFFF"></path>
                <path d="M16.4371584,1.94801642 C13.9006745,1.94801642 11.9069767,4.23522943 11.9069767,7.91061374 C11.9069767,11.6017477 13.7240489,13.9046868 16.7273876,13.9046868 C19.1250356,13.9046868 20.8033892,12.1380791 21.0682689,9.20398229 L18.2037661,9.20398229 C18.0902797,10.2924887 17.6359824,11.1285554 16.6769232,11.1285554 C15.1626377,11.1285554 14.8849659,9.62999611 14.8849659,8.03679833 C14.8849659,5.8441064 15.5160062,4.72426512 16.5633195,4.72426512 C17.4971465,4.72426512 18.0902797,5.40248381 18.1785338,6.58558168 L21.005247,6.58558168 C20.7654822,3.66732837 19.2134071,1.94801642 16.4371584,1.94801642 Z" id="path22" fill="#FFFFFF"></path>
            </g>
        </g>
    </g>
</svg>