<?xml version="1.0" encoding="utf-8"?>
<!-- Generator: Adobe Illustrator 16.0.0, SVG Export Plug-In . SVG Version: 6.00 Build 0)  -->
<!DOCTYPE svg PUBLIC "-//W3C//DTD SVG 1.1//EN" "http://www.w3.org/Graphics/SVG/1.1/DTD/svg11.dtd">
<svg version="1.1" id="Layer_1" xmlns="http://www.w3.org/2000/svg" xmlns:xlink="http://www.w3.org/1999/xlink" x="0px" y="0px"
	 width="500px" height="500px" viewBox="0 0 500 500" enable-background="new 0 0 500 500" xml:space="preserve">
<path d="M294.889,14.618c-113.104,0-205.114,88.676-205.114,197.667c0,38.451,11.63,74.263,31.414,104.666L0,432.751l50.171,52.51
	l121.028-115.657c34.445,25.209,77.206,40.35,123.688,40.35C407.992,409.952,500,321.277,500,212.285
	C500,103.294,407.992,14.618,294.889,14.618z M294.889,337.339c-73.058,0-132.5-56.092-132.5-125.054s59.442-125.053,132.5-125.053
	c73.073,0,132.498,56.091,132.498,125.053S367.962,337.339,294.889,337.339z"/>
</svg>
